<?xml version="1.0" encoding="utf-8"?>
<!-- Generator: Adobe Illustrator 16.0.0, SVG Export Plug-In . SVG Version: 6.00 Build 0)  -->
<!DOCTYPE svg PUBLIC "-//W3C//DTD SVG 1.1//EN" "http://www.w3.org/Graphics/SVG/1.1/DTD/svg11.dtd">
<svg version="1.1" id="Layer_1" xmlns="http://www.w3.org/2000/svg" xmlns:xlink="http://www.w3.org/1999/xlink" x="0px" y="0px"
	 width="323.973px" height="35.967px" viewBox="0 0 323.973 35.967" enable-background="new 0 0 323.973 35.967"
	 xml:space="preserve">
<path fill="#E01383" d="M10.105,2.856c-2.787,0-5.197,0.982-7.16,2.922C1.004,7.708,0,10.108,0,12.907
	c0,2.778,1.004,5.165,2.946,7.118c1.963,1.952,4.373,2.935,7.16,2.935c2.834,0,5.246-0.982,7.185-2.935
	c1.965-1.953,2.948-4.34,2.948-7.118c0-2.799-0.983-5.199-2.948-7.129C15.352,3.838,12.94,2.856,10.105,2.856 M13.723,17.381
	c-0.961,1.25-2.188,1.885-3.639,1.885c-1.427,0-2.654-0.658-3.613-1.93c-0.98-1.316-1.473-2.789-1.473-4.429
	c0-1.651,0.512-3.135,1.518-4.384c1.027-1.25,2.23-1.896,3.59-1.896c1.474,0,2.656,0.635,3.638,1.941
	c0.959,1.305,1.475,2.789,1.475,4.417C15.219,14.647,14.703,16.121,13.723,17.381 M48.484,17.905
	c1.604-1.372,2.633-3.08,3.057-5.076h3.056v12.373c0.069,0.523,0.448,0.646,0.647,0.67h1.586c0.535-0.057,2.23-0.402,2.275-2.556V0
	h-4.508v8.59h-3.101c-0.467-1.986-1.516-3.66-3.1-4.976c-1.607-1.35-3.506-2.03-5.646-2.03c-2.477,0-4.619,0.903-6.36,2.7
	c-1.761,1.796-2.654,3.994-2.654,6.537c0,2.544,0.893,4.731,2.654,6.515c1.741,1.785,3.883,2.688,6.36,2.688
	C44.912,20.024,46.834,19.311,48.484,17.905 M39.783,14.637c-0.781-1.038-1.182-2.321-1.182-3.816c0-1.506,0.401-2.789,1.182-3.815
	c0.781-1.027,1.738-1.539,2.967-1.539c1.205,0,2.187,0.512,2.969,1.539c0.781,1.026,1.158,2.309,1.158,3.815
	c0,1.495-0.377,2.778-1.158,3.816c-0.782,1.026-1.764,1.539-2.969,1.539C41.521,16.176,40.564,15.663,39.783,14.637 M136.773,21.921
	c1.809-0.056,2.098-1.461,2.143-1.896v-1.384c-0.021-0.167-0.135-0.49-0.555-0.547h-5.379V6.504h3.791
	c1.809-0.045,2.098-1.451,2.143-1.908V3.235c-0.021-0.167-0.135-0.491-0.555-0.546h-28.697v3.815h4.955v11.59h-4.955v3.827H136.773z
	 M119.525,6.504h8.545v11.59h-8.545V6.504z M315.672,22.914c0.293,0.056,0.336,0.18,0.336,0.29c0,0.09-0.021,0.179-0.111,0.29
	l-2.545,2.813l-0.109-0.023c-1.541-0.445-3.191-1.394-4.889-2.822c-1.717-1.439-2.92-3.047-3.613-4.797
	c-0.021-0.067-0.113-0.133-0.113-0.133s-0.041,0.01-0.086,0.133c-0.67,1.75-1.877,3.358-3.57,4.797
	c-1.721,1.429-3.369,2.377-4.932,2.822l-0.111,0.023l-2.566-2.857c-0.045-0.089-0.045-0.168-0.045-0.245
	c0-0.089,0.023-0.223,0.289-0.29c1.807-0.436,3.684-1.739,5.557-3.894c1.852-2.142,2.789-4.987,2.789-8.434V6.124h-6.514h-0.09
	V2.319h0.09V2.297h18.273c0.445,0.055,0.557,0.38,0.58,0.536v1.383c-0.047,0.447-0.359,1.863-2.166,1.907h-4.795v4.463
	c0,3.47,0.934,6.314,2.787,8.457C311.99,21.175,313.844,22.479,315.672,22.914 M65.352,31.727c0.447,0.067,0.561,0.402,0.58,0.547
	v1.384c-0.043,0.436-0.357,1.864-2.162,1.919H43.71c-1.07,0-1.896-0.279-2.433-0.803c-0.533-0.535-0.801-1.372-0.801-2.5v-9.215
	h4.996v8.29c0,0.134,0.045,0.233,0.111,0.301c0.043,0.066,0.155,0.09,0.268,0.09L65.352,31.727 M250.924,32.251
	c0.604,0,0.914,0.392,0.914,1.205c0,1.674-0.603,2.499-1.764,2.499h-21.037c-2.703,0-4.063-1.281-4.063-3.827v-5.31h20.595
	c0.468,0,0.69-0.379,0.69-1.127v-0.969h-21.285v-3.705h24.076c1.338,0,2.006,0.636,2.006,1.908v1.684
	c0,3.894-1.025,5.835-3.078,5.835h-18.207v0.926c0,0.58,0.313,0.881,0.938,0.881H250.924 M265.201,21.264
	c-2.742,0-4.127-1.294-4.127-3.895V9.907h20.572c0.469,0,0.713-0.369,0.713-1.128v-3.48h-21.285V1.54h24.098
	c1.361,0,2.029,0.647,2.029,1.941v4.195c0,3.937-1.023,5.912-3.123,5.912h-18.139v3.023c0,0.592,0.313,0.882,0.961,0.882h20.191
	c0.604,0,0.912,0.412,0.912,1.226c0,1.696-0.6,2.545-1.783,2.545H265.201 M142.287,28.313c0.422,0.044,0.535,0.38,0.557,0.536v1.383
	c-0.045,0.446-0.336,1.852-2.141,1.896h-34.074v-3.814H142.287 M167.006,21.62c0.447,0.056,0.561,0.39,0.582,0.546v1.396
	c-0.047,0.412-0.312,1.707-1.853,1.896l-9.571,0.011c-1.56,0-2.744-0.411-3.549-1.204c-0.781-0.814-1.181-2.085-1.181-3.771V2.665
	l15.15-0.01c0.447,0.055,0.557,0.379,0.58,0.535v1.384c-0.045,0.446-0.338,1.852-2.164,1.907h-8.613v5.109h8.545
	c0.445,0.045,0.559,0.391,0.582,0.536v1.395c-0.047,0.434-0.336,1.874-2.166,1.908h-6.961v5.599c0,0.213,0.045,0.369,0.154,0.445
	c0.113,0.112,0.225,0.157,0.383,0.157L167.006,21.62 M219.729,28.313c0.426,0.044,0.537,0.38,0.562,0.536v1.383
	c-0.046,0.446-0.334,1.852-2.144,1.896h-32.844v-3.814H219.729 M291.711,28.313c0.445,0.044,0.557,0.38,0.58,0.536v1.383
	c-0.043,0.446-0.359,1.852-2.164,1.896h-32.846v-3.814h14.35v-5.22h5.107v5.22H291.711 M255.162,15.061
	c0.445,0.055,0.559,0.39,0.58,0.535v1.372c-0.045,0.457-0.355,1.864-2.164,1.908h-34.406v-3.815h16.064V12.55h-6.761
	c-1.093,0-1.894-0.268-2.454-0.814c-0.535-0.535-0.803-1.383-0.803-2.499V0.958h5.02v7.341c0,0.134,0.049,0.224,0.113,0.302
	c0.068,0.066,0.156,0.101,0.266,0.101h10.131v0.011h10.711c0.426,0.056,0.535,0.39,0.559,0.535v1.383
	c-0.047,0.446-0.335,1.875-2.164,1.908l-9.26,0.011v2.511H255.162 M25.014,0.043h4.887V33.2c-0.047,2.321-1.897,2.699-2.457,2.767
	h-1.739c-0.203-0.033-0.625-0.179-0.691-0.736V0.043z M97.707,0h4.504v33.411c-0.043,2.143-1.738,2.5-2.274,2.556H98.33
	c-0.178-0.034-0.582-0.168-0.623-0.681V0z M91.614,10.208h-3.836c-0.469-2.076-1.539-3.838-3.17-5.21
	c-1.651-1.429-3.613-2.142-5.822-2.142c-2.52,0-4.686,0.937-6.495,2.789c-1.806,1.84-2.697,4.105-2.697,6.727
	s0.891,4.863,2.697,6.705c1.786,1.829,3.975,2.766,6.495,2.766c2.209,0,4.195-0.725,5.867-2.153c1.65-1.406,2.701-3.158,3.125-5.243
	h3.836v20.839c0.066,0.513,0.468,0.647,0.648,0.681h1.584c0.535-0.056,2.231-0.413,2.297-2.555V0h-4.529V10.208z M81.932,16.377
	c-0.826,1.07-1.898,1.617-3.146,1.617c-1.25,0-2.299-0.547-3.124-1.617c-0.847-1.083-1.271-2.432-1.271-4.005
	c0-1.584,0.424-2.934,1.271-4.016c0.825-1.072,1.874-1.607,3.124-1.607c1.248,0,2.32,0.535,3.146,1.607
	c0.824,1.082,1.271,2.432,1.271,4.016C83.203,13.945,82.756,15.294,81.932,16.377 M61.627,25.87c-0.201-0.021-0.58-0.146-0.648-0.67
	V0h4.529v23.316c-0.067,2.153-1.76,2.499-2.274,2.555H61.627 M177.629,0h4.527v33.411c-0.064,2.143-1.762,2.5-2.298,2.556h-1.583
	c-0.203-0.034-0.582-0.168-0.646-0.681V0z M323.973,0v33.188c-0.043,2.333-1.896,2.712-2.451,2.778h-1.742
	c-0.201-0.033-0.625-0.179-0.693-0.736V0H323.973z M171.225,0h4.527v33.412c-0.064,2.142-1.762,2.499-2.297,2.555h-1.584
	c-0.201-0.033-0.582-0.168-0.646-0.681V15.462h-4.35v-3.86h4.35V0z M210.248,6.616c-0.023-0.034-0.133-0.101-0.469-0.101h-19.947
	V2.7h24.945c0.178,0,0.336,0.066,0.424,0.167c0.135,0.123,0.178,0.268,0.178,0.446v12.005c0,2.565-0.178,4.73-0.49,6.425
	c-0.334,1.718-0.939,3.091-1.738,4.095l-0.066,0.065h-4.688l0.156-0.278c0.559-0.947,0.982-2.019,1.248-3.168
	c0.246-1.094,0.424-2.433,0.494-3.983l0.021-1.406h-20.105v-3.769h20.148V7.061C210.359,6.761,210.27,6.637,210.248,6.616"/>
</svg>
