<?xml version="1.0" encoding="utf-8"?>
<!-- Generator: Adobe Illustrator 16.0.0, SVG Export Plug-In . SVG Version: 6.00 Build 0)  -->
<!DOCTYPE svg PUBLIC "-//W3C//DTD SVG 1.1//EN" "http://www.w3.org/Graphics/SVG/1.1/DTD/svg11.dtd">
<svg version="1.1" id="Layer_1" xmlns="http://www.w3.org/2000/svg" xmlns:xlink="http://www.w3.org/1999/xlink" x="0px" y="0px"
	 width="250.218px" height="44.017px" viewBox="0 0 250.218 44.017" enable-background="new 0 0 250.218 44.017"
	 xml:space="preserve">
<path fill="#8FB73E" d="M54.851,3.562c-3.412,0-6.357,1.2-8.753,3.565c-2.396,2.366-3.609,5.3-3.609,8.719
	c0,3.389,1.213,6.314,3.608,8.693c2.395,2.381,5.34,3.588,8.754,3.588c3.445,0,6.399-1.207,8.779-3.588s3.587-5.306,3.587-8.693
	c0-3.418-1.207-6.351-3.589-8.718C61.247,4.762,58.294,3.562,54.851,3.562 M59.264,21.312c-1.202,1.548-2.66,2.302-4.46,2.302
	c-1.739,0-3.222-0.797-4.408-2.369c-1.2-1.594-1.809-3.41-1.809-5.399c0-2.018,0.631-3.825,1.874-5.369
	c1.233-1.53,2.708-2.306,4.39-2.306c1.796,0,3.245,0.775,4.434,2.369c1.183,1.593,1.785,3.41,1.785,5.4
	C61.07,17.961,60.462,19.768,59.264,21.312 M113.003,27.713c0.286,0.146,0.283,0.374,0.266,0.465
	c-0.023,0.144-0.084,0.263-0.177,0.356l-3.267,2.892l-0.129-0.054c-0.919-0.389-2.025-1.183-3.285-2.359
	c-1.27-1.181-2.138-2.37-2.584-3.534c-0.021-0.063-0.068-0.179-0.125-0.307c-0.044,0.133-0.085,0.253-0.106,0.309
	c-0.31,1.176-1.102,2.389-2.348,3.578c-1.236,1.184-2.379,1.963-3.395,2.318l-0.08,0.028l-0.076-0.032
	c-0.891-0.355-1.987-1.134-3.265-2.312c-1.287-1.184-2.164-2.391-2.607-3.586c-0.021-0.061-0.067-0.174-0.119-0.297
	c-0.047,0.128-0.091,0.245-0.111,0.3c-0.376,1.18-1.158,2.379-2.322,3.553c-1.162,1.169-2.313,1.959-3.422,2.346l-0.123,0.043
	l-3.249-2.876c-0.107-0.104-0.167-0.229-0.19-0.369c-0.014-0.089-0.016-0.319,0.285-0.47c1.857-1.103,3.388-2.722,4.537-4.803
	c1.151-2.085,1.736-5.366,1.736-9.751V2.097h5.866v11.054c0,3.053,0.294,5.561,0.872,7.453c0.54,1.774,1.277,3.25,2.195,4.396
	c0.914-1.14,1.653-2.617,2.197-4.396c0.575-1.894,0.87-4.401,0.87-7.453V2.097h5.87v11.054c0,4.387,0.589,7.668,1.755,9.75
	C109.636,24.984,111.162,26.603,113.003,27.713 M145.388,21.251c1.468-1.484,2.429-3.207,2.898-5.134h3.765v14.802
	c0.08,0.627,0.56,0.786,0.785,0.82h1.958c0.641-0.066,2.719-0.491,2.783-3.122V0.122h-5.526v11.291h-3.574
	c-0.359-2.318-1.385-4.368-3.089-6.103c-2.148-2.195-4.766-3.306-7.78-3.306c-3.016,0-5.636,1.111-7.782,3.306
	c-2.148,2.19-3.237,4.876-3.237,7.982s1.089,5.784,3.237,7.959c2.149,2.179,4.767,3.283,7.782,3.283
	C140.621,24.534,143.239,23.43,145.388,21.251 M133.987,17.958c-0.955-1.262-1.438-2.832-1.438-4.666s0.482-3.404,1.438-4.666
	c0.949-1.26,2.135-1.873,3.62-1.873c1.466,0,2.683,0.63,3.623,1.873c0.954,1.265,1.439,2.835,1.439,4.666s-0.485,3.401-1.439,4.666
	c-0.94,1.243-2.157,1.873-3.623,1.873C136.122,19.831,134.937,19.218,133.987,17.958 M226.083,3.562c-3.412,0-6.356,1.2-8.754,3.565
	c-2.396,2.367-3.611,5.301-3.611,8.719c0,3.388,1.215,6.313,3.61,8.693c2.396,2.381,5.342,3.588,8.755,3.588
	c3.444,0,6.397-1.207,8.776-3.588c2.38-2.381,3.589-5.306,3.589-8.693c0-3.418-1.209-6.351-3.589-8.718
	C232.478,4.762,229.525,3.562,226.083,3.562 M230.493,21.312c-1.187,1.527-2.685,2.302-4.457,2.302
	c-1.741,0-3.225-0.797-4.409-2.369c-1.199-1.594-1.81-3.41-1.81-5.399c0-2.017,0.631-3.824,1.871-5.369
	c1.235-1.53,2.713-2.306,4.395-2.306c1.77,0,3.261,0.797,4.432,2.37c1.185,1.59,1.787,3.407,1.787,5.399
	C232.302,17.961,231.692,19.769,230.493,21.312 M165.264,38.843c0.527,0.066,0.662,0.472,0.69,0.659v1.688
	c-0.056,0.539-0.416,2.286-2.625,2.34h-24.52c-1.315,0-2.313-0.33-2.965-0.98c-0.653-0.65-0.984-1.676-0.984-3.048V28.242h6.106
	v10.134c0,0.159,0.039,0.276,0.12,0.358c0.08,0.082,0.194,0.123,0.346,0.123L165.264,38.843 M32.035,0.065h5.527v40.823
	c-0.065,2.631-2.143,3.056-2.785,3.122h-1.956c-0.225-0.034-0.707-0.193-0.786-0.82V0.065z M24.125,0.065h5.526v40.823
	c-0.064,2.631-2.143,3.056-2.785,3.122H24.91c-0.225-0.034-0.708-0.192-0.785-0.82V18.527h-5.623
	c-1.858,4.334-4.431,7.622-7.647,9.774c-3.239,2.166-5.751,3.473-7.463,3.888l-0.116,0.026l-3.1-2.822
	c-0.214-0.222-0.194-0.395-0.142-0.499c0.06-0.124,0.186-0.212,0.376-0.261c2.146-0.71,4.408-1.939,6.712-3.651
	c2.213-1.646,4.021-4.008,5.375-7.021H3.438v-4.656h10.516c0.164-0.852,0.301-1.754,0.401-2.685
	c0.108-1.006,0.163-2.048,0.163-3.097V7.509H3.208V2.806h16.721c0.277,0,0.436,0.121,0.52,0.223c0.111,0.137,0.167,0.3,0.167,0.475
	v4.443c0,1.075-0.054,2.142-0.162,3.169c-0.101,0.933-0.243,1.827-0.429,2.661h4.1V0.065z M73.066,0.128h5.968v40.517
	c-0.07,2.84-2.315,3.3-3.008,3.372h-2.111c-0.245-0.037-0.764-0.208-0.849-0.886V0.128z M115.52,0.128h5.968v40.517
	c-0.071,2.84-2.317,3.3-3.007,3.372h-2.112c-0.244-0.037-0.764-0.208-0.849-0.886V0.128z M250.218,0.127v40.518
	c-0.07,2.84-2.314,3.3-3.008,3.371h-2.11c-0.246-0.037-0.765-0.208-0.85-0.886V0.127H250.218z M203.876,0h5.526v40.824
	c-0.067,2.63-2.143,3.057-2.784,3.122h-1.956c-0.225-0.035-0.708-0.194-0.786-0.821V0z M196.049,12.548h-3.611
	c-0.581-2.543-1.877-4.688-3.854-6.379c-2.027-1.73-4.422-2.607-7.121-2.607c-3.076,0-5.749,1.145-7.942,3.403
	c-2.195,2.254-3.31,5.02-3.31,8.219c0,3.199,1.114,5.956,3.31,8.196c2.192,2.24,4.865,3.376,7.942,3.376
	c2.702,0,5.112-0.885,7.166-2.63c2.006-1.704,3.289-3.858,3.815-6.402h3.605v25.401c0.078,0.628,0.56,0.787,0.785,0.821h1.956
	c0.642-0.066,2.721-0.491,2.785-3.122V0h-5.526V12.548z M185.295,20.082c-1.029,1.326-2.284,1.971-3.833,1.971
	c-1.548,0-2.801-0.645-3.832-1.971c-1.028-1.324-1.55-2.972-1.55-4.898c0-1.925,0.521-3.574,1.549-4.9
	c1.033-1.326,2.287-1.97,3.833-1.97c1.526,0,2.816,0.663,3.833,1.969c1.03,1.328,1.552,2.977,1.552,4.901
	C186.847,17.109,186.325,18.757,185.295,20.082 M160.695,31.739c-0.228-0.034-0.707-0.193-0.786-0.82V18.065v-1.948V0.122h5.526
	v28.495c-0.065,2.63-2.142,3.056-2.784,3.122H160.695"/>
</svg>
