<svg xmlns="http://www.w3.org/2000/svg" width="272.599" height="47.778" viewBox="0 0 272.599 47.778" focusable="false" class="">
                            <path fill="#109AD6" d="M236.084 0c-4.686 0-8.923.887-12.87 4.834-3.95 3.95-3.765 9.22-3.765 9.22.026 2.477 1.15 3.34 4.052 3.34 3.17 0 3.894-.834 4.098-3.014.247-2.643 1.072-4.12 2.093-5.142 1.157-1.157 3.132-2.454 5.963-2.454 3.105 0 4.995 1.047 6.12 2.17 1.122 1.125 2.222 2.938 2.222 5.647 0 2.366-.393 3.13-2.676 3.737-2.545.678-7.862 2.1-11.305 3.04-3.543.962-6.54 2.482-8.712 4.714-2.072 2.13-3.305 4.757-3.305 8.516 0 3.59 1.6 6.972 4.546 9.454 3.317 2.792 8.698 3.952 15.795 3.68 4.226-.165 7.413-.972 9.067-1.6 3.6-1.372 4.79-2.543 4.79-6.365V15.768c0-4.937-1.338-8.644-4.154-11.46C245.23 1.495 240.77 0 236.083 0zm7.69 36.872c0 1.154-.224 1.93-.73 2.467-.51.536-1.853 1.38-5.297 1.51-4.987.188-7.897-.935-9.446-2.403s-1.887-2.938-1.887-4.315c0-1.472.518-2.74 1.56-3.765 1.204-1.185 2.527-1.678 3.975-2.143 1.037-.333 6.655-1.855 9.76-2.69 1.23-.33 2.066-.68 2.066-.68 0 1.588.005 7.096 0 12.018zm28.825-33.31v40.65c0 2.696-1.302 3.4-4.21 3.4-2.914 0-4.213-.704-4.213-3.4V3.563c0-2.695 1.3-3.4 4.212-3.4 2.908 0 4.21.705 4.21 3.4zm-62.685 38.53l.003 2.113c0 2.696-1.26 3.4-4.078 3.4-2.822 0-4.08-.704-4.08-3.4v-1.748c0-8.543-3.558-11.75-8.254-17.13-2.737 1.78-5.446 3.577-6.255 4.24-.894.73-1.65 1.783-1.65 3.372v11.27c0 2.697-1.3 3.402-4.21 3.402s-4.21-.705-4.21-3.4V3.56c0-2.695 1.3-3.4 4.21-3.4s4.21.705 4.21 3.4v18.01c.324-.274.67-.522.993-.728 3.362-2.14 6.94-4.212 9.8-6.48 2.934-2.33 4.387-5.687 4.363-9.418V3.562c0-2.695 1.26-3.4 4.08-3.4 2.82 0 4.08.705 4.08 3.4l-.002 1.478h.012c.066 6.727-2.903 12.173-8.67 15.96 2.304 2.847 4.695 5.335 6.542 8.177 2.57 3.954 3.153 8.395 3.117 12.915zm-97.056-8.15c-1.333.855-2.606 1.33-3.783 1.406l-.066.004-1.78-2.02c-.083-.09-.085-.185-.074-.248.014-.06.058-.165.227-.206 1.26-.132 2.81-.696 4.17-1.9 1.476-1.307 2.145-4.276 2.145-7.344v-3h3.776v3c0 3.067.657 5.74 2.103 7.06 1.35 1.233 2.97 2.07 4.19 2.182.242.044.265.18.265.236 0 .082-.03.157-.092.222l-1.78 2.02-.063-.004c-1.102-.057-2.344-.516-3.695-1.362-1.357-.856-2.278-1.878-2.732-3.04-.02-.05-.047-.07-.098-.073-.028-.01-.045 0-.066.062-.42 1.135-1.312 2.144-2.647 3.004zm42.317 4.195H144.38V35.42h-3.692v8.316c0 .793.213 1.407.63 1.824.416.416.994.627 1.723.627h13.48c.726 0 1.304-.21 1.72-.627.417-.414.628-1.028.628-1.824v-8.603h-3.69v3.004zm0 4.97c0 .173-.04.24-.06.262-.018.016-.078.058-.253.058h-10.172c-.2 0-.27-.03-.273-.032-.003-.002-.04-.047-.04-.262v-2.177h10.797v2.15zM43.777 23.31h-14.77v-2.846h18.5c.13 0 .233.036.308.11.073.078.108.192.108.338v4.995c0 1.223-.077 2.14-.23 2.723-.032.127-.08.246-.124.362l-.082.21h-3.684l.056-.177c.08-.248.152-.493.192-.75.1-.658.15-1.562.15-2.683v-1.876c0-.226-.045-.305-.07-.332-.023-.02-.102-.074-.354-.074zm111.457 1.728h-4.2c-.01-.033-.013-.066-.022-.1l-.044-.098c-.43-1.414-1.306-2.598-2.597-3.52-1.323-.94-2.86-1.417-4.57-1.417-2.045 0-3.813.67-5.253 1.996-1.446 1.327-2.18 2.96-2.18 4.85s.733 3.52 2.18 4.848c1.44 1.324 3.21 1.996 5.254 1.996.433 0 .87-.03 1.33-.1l.047-.007c.345-.058.673-.147.976-.237.164-.05.328-.1.484-.162.24-.09.48-.192.712-.31.164-.083.325-.174.484-.27.23-.136.47-.286.703-.464.084-.06.16-.128.24-.194l.08-.07c.174-.147.342-.303.5-.462.153-.158.303-.324.44-.496.112-.14.222-.28.32-.425l.034-.05c.08-.112.157-.228.228-.347.176-.302.313-.585.42-.86l.047-.114c.102-.285.175-.57.236-.856h4.153v5.524c.05.412.367.517.516.54h1.286c.42-.044 1.788-.326 1.83-2.055V19.603h-3.633v5.434zm-8.9 4.553c-.704.78-1.557 1.177-2.534 1.177-.974 0-1.82-.396-2.517-1.175-.7-.784-1.054-1.74-1.054-2.843s.353-2.06 1.053-2.846c.697-.78 1.546-1.175 2.517-1.175.976 0 1.828.395 2.535 1.174.71.784 1.068 1.742 1.068 2.845 0 1.104-.36 2.06-1.068 2.84zm-84.138 3.904l.046-.006c.345-.058.672-.147.975-.237.164-.05.327-.1.485-.16.24-.09.48-.193.71-.31.167-.083.327-.175.487-.27.226-.137.47-.287.702-.465.083-.06.16-.128.238-.194l.08-.068c.176-.148.345-.304.502-.463.154-.16.3-.325.44-.497.114-.14.22-.28.32-.425l.035-.05c.078-.112.157-.228.227-.347.175-.3.312-.584.42-.86l.046-.113c.12-.334.214-.674.28-1.01h.016l.023-.11c.077-.414.115-.796.115-1.17 0-.593-.09-1.2-.267-1.798l-.046-.1c-.432-1.414-1.304-2.598-2.597-3.52-1.323-.94-2.86-1.417-4.57-1.417-2.044 0-3.812.67-5.254 1.996-1.446 1.327-2.177 2.96-2.177 4.85s.73 3.52 2.178 4.848c1.443 1.324 3.212 1.996 5.256 1.996.432 0 .87-.03 1.33-.1zm-4.902-6.744c0-1.102.356-2.06 1.055-2.844.697-.78 1.543-1.176 2.516-1.176.975 0 1.828.396 2.535 1.176.71.783 1.07 1.74 1.07 2.844 0 1.104-.36 2.06-1.07 2.842-.704.78-1.556 1.176-2.534 1.176-.975 0-1.82-.396-2.517-1.175-.7-.785-1.056-1.74-1.056-2.843zM8.82 35.7c.016 0 .033-.003.043-.005.31-.054.603-.136.873-.218.145-.047.29-.095.433-.15.215-.082.428-.177.634-.283.15-.076.29-.162.433-.247.204-.126.42-.264.628-.427.075-.058.144-.12.215-.18l.072-.063c.153-.137.304-.28.445-.427.138-.146.27-.298.395-.455.1-.13.196-.256.286-.39l.03-.048c.07-.104.14-.208.2-.317.16-.285.283-.543.387-.82l.03-.076c.106-.3.19-.607.248-.917l.036-.11c.07-.384.104-.734.104-1.076 0-.543-.08-1.1-.24-1.65l-.043-.098c-.293-.992-.822-1.855-1.57-2.585h1.88c1.346-.034 1.565-1.098 1.6-1.425V22.73c-.02-.115-.1-.363-.42-.402H9.57v-3.43H5.71v3.43H0v2.82h2.844C1.62 26.347.996 27.813.996 29.502c0 1.736.654 3.235 1.945 4.455 1.288 1.218 2.868 1.836 4.696 1.836.382 0 .773-.03 1.184-.094zm-4.187-6.198c0-.957.3-1.79.888-2.47.59-.674 1.3-1.017 2.116-1.017.817 0 1.533.343 2.128 1.017.597.68.9 1.51.9 2.47 0 .957-.303 1.787-.9 2.466-.594.675-1.31 1.02-2.128 1.02-.818 0-1.53-.345-2.115-1.02-.588-.68-.887-1.51-.887-2.466zM22.24 43.448v1.03c-.035.326-.255 1.39-1.6 1.424H6.175c-.8 0-1.408-.2-1.804-.598-.398-.396-.6-1.02-.6-1.856v-6.37h3.72v5.686c0 .098.023.17.074.22.048.048.115.073.21.073l14.044-.01c.322.04.402.287.42.4zm29.287-12.25v1.028c-.033.328-.253 1.392-1.6 1.425l-9.652-.01v3.274h7.49c.163 0 .257.062.31.11.07.074.108.18.108.312v6.8c-.043 1.73-1.41 2.01-1.83 2.055h-1.29c-.148-.023-.465-.126-.516-.54l-.01-5.74c0-.04-.008-.092-.034-.12-.02-.02-.058-.03-.113-.03H28.495v-2.845h7.757v-3.273H25.48v-2.845h25.627c.32.04.402.286.42.4zM75.91 43.92v.877c-.032.318-.246 1.357-1.56 1.39H59.734c-.857 0-1.474-.19-1.835-.57-.366-.383-.544-1.017-.544-1.938v-4.456h14.58V37.41H57.31v-2.503h17.625c.23 0 .408.08.528.237.11.15.165.318.165.498v5.507c0 .186-.05.346-.153.47-.112.138-.293.207-.54.207h-13.86v1.605c0 .05.017.063.023.068.004.005.033.026.125.026l14.277.002c.312.04.394.28.41.392zm27.13 0v.877c-.032.318-.247 1.357-1.56 1.39H86.165c-.855 0-1.473-.19-1.836-.57-.365-.383-.54-1.017-.54-1.938v-4.34h15.28v-1.73H83.737v-2.476h18.607c.125 0 .224.03.296.087.082.07.12.185.12.367v5.647c0 .18-.052.338-.155.47-.114.14-.292.21-.54.21h-14.56v1.518c0 .034.008.057.02.07.007.005.04.024.124.024h14.98c.312.04.393.28.41.394zm28.08-.476v1.066c-.032.32-.247 1.36-1.56 1.392h-14.17c-.8 0-1.41-.2-1.806-.6-.4-.394-.6-1.018-.6-1.854V36.62h3.718v6.143c0 .1.025.17.073.22.05.05.118.073.21.073l13.725-.004c.312.04.394.28.41.392zm-25.222-12.29v1.002c-.032.32-.245 1.358-1.56 1.39H79.936V30.76h10.39v-2.675H83.68v-2.76H99.18V23.43c0-.227-.045-.308-.073-.335-.02-.02-.1-.072-.35-.072H83.404v-2.846h19.08c.128 0 .23.037.306.11.074.078.11.18.11.312v4.774c0 1.406-.12 2.373-.36 2.957-.238.572-.58 1.136-1.016 1.678l-.04.05h-3.5l.157-.216c.217-.293.397-.597.536-.904.114-.263.208-.55.278-.853h-4.826v2.674h11.36c.314.04.395.28.41.393zm29.346-4.253v1.24c-.033.32-.246 1.358-1.56 1.39h-2.842v7.167c-.042 1.73-1.41 2.01-1.833 2.054h-1.285c-.15-.02-.465-.126-.517-.54V19.605h3.634v6.904h3.992c.312.04.393.28.41.393zm-55.552-1.69v1.237c-.032.32-.246 1.36-1.56 1.39h-2.504V31.98c-.042 1.728-1.41 2.01-1.83 2.053H72.51c-.148-.024-.464-.128-.515-.54V19.604h3.633v5.212h3.654c.314.04.394.28.41.393zM24.74 29.406h-2.782v7.29c-.044 1.73-1.41 2.01-1.832 2.054H18.84c-.15-.022-.466-.126-.518-.54V19.605h3.636v6.78h3.933c.314.038.393.278.41.393v1.238c-.032.32-.246 1.36-1.56 1.392z" class=""></path>
                        </svg>